<svg width="30" height="30" fill="none" xmlns="http://www.w3.org/2000/svg"><circle cx="15" cy="15" r="14.5" fill="#fff" stroke="#0069FF"/><path d="M10.624 18.808a59.23 59.23 0 002.96-2.528 10.066 10.066 0 001.536-1.744c.416-.608.624-1.2.624-1.776 0-.437-.101-.779-.304-1.024-.203-.245-.507-.368-.912-.368s-.725.155-.96.464c-.224.299-.336.725-.336 1.28h-2.64c.021-.907.213-1.664.576-2.272.373-.608.859-1.056 1.456-1.344a4.65 4.65 0 012.016-.432c1.27 0 2.224.325 2.864.976.65.65.976 1.499.976 2.544 0 1.141-.39 2.203-1.168 3.184-.779.97-1.77 1.92-2.976 2.848h4.32v2.224h-8.032v-2.032z" fill="#0069FF"/></svg>