<svg width="30" height="30" fill="none" xmlns="http://www.w3.org/2000/svg"><circle cx="15" cy="15" r="14.5" fill="#fff" stroke="#0069FF"/><path d="M10.816 12.616c.043-1.141.416-2.021 1.12-2.64.704-.619 1.659-.928 2.864-.928.8 0 1.483.139 2.048.416.576.277 1.008.656 1.296 1.136.299.48.448 1.019.448 1.616 0 .704-.176 1.28-.528 1.728-.352.437-.763.736-1.232.896v.064c.608.203 1.088.539 1.44 1.008.352.47.528 1.072.528 1.808 0 .661-.155 1.248-.464 1.76-.299.501-.741.896-1.328 1.184-.576.288-1.264.432-2.064.432-1.28 0-2.304-.315-3.072-.944-.757-.63-1.157-1.579-1.2-2.848h2.656c.01.47.144.843.4 1.12.256.267.63.4 1.12.4.416 0 .736-.117.96-.352.235-.245.352-.565.352-.96 0-.512-.165-.88-.496-1.104-.32-.235-.837-.352-1.552-.352H13.6v-2.224h.512c.544 0 .981-.09 1.312-.272.341-.192.512-.528.512-1.008 0-.384-.107-.683-.32-.896-.213-.213-.507-.32-.88-.32-.405 0-.71.123-.912.368-.192.245-.304.55-.336.912h-2.672z" fill="#0069FF"/></svg>