<svg width="30" height="30" viewBox="0 0 30 30" fill="none" xmlns="http://www.w3.org/2000/svg">
<circle cx="15" cy="15" r="14.5" fill="white" stroke="#0069FF"/>
<path d="M10.816 12.616C10.8587 11.4747 11.232 10.5947 11.936 9.976C12.64 9.35733 13.5947 9.048 14.8 9.048C15.6 9.048 16.2827 9.18667 16.848 9.464C17.424 9.74133 17.856 10.12 18.144 10.6C18.4427 11.08 18.592 11.6187 18.592 12.216C18.592 12.92 18.416 13.496 18.064 13.944C17.712 14.3813 17.3013 14.68 16.832 14.84V14.904C17.44 15.1067 17.92 15.4427 18.272 15.912C18.624 16.3813 18.8 16.984 18.8 17.72C18.8 18.3813 18.6453 18.968 18.336 19.48C18.0373 19.9813 17.5947 20.376 17.008 20.664C16.432 20.952 15.744 21.096 14.944 21.096C13.664 21.096 12.64 20.7813 11.872 20.152C11.1147 19.5227 10.7147 18.5733 10.672 17.304H13.328C13.3387 17.7733 13.472 18.1467 13.728 18.424C13.984 18.6907 14.3573 18.824 14.848 18.824C15.264 18.824 15.584 18.7067 15.808 18.472C16.0427 18.2267 16.16 17.9067 16.16 17.512C16.16 17 15.9947 16.632 15.664 16.408C15.344 16.1733 14.8267 16.056 14.112 16.056H13.6V13.832H14.112C14.656 13.832 15.0933 13.7413 15.424 13.56C15.7653 13.368 15.936 13.032 15.936 12.552C15.936 12.168 15.8293 11.8693 15.616 11.656C15.4027 11.4427 15.1093 11.336 14.736 11.336C14.3307 11.336 14.0267 11.4587 13.824 11.704C13.632 11.9493 13.52 12.2533 13.488 12.616H10.816Z" fill="#0069FF"/>
</svg>
