<svg width="30" height="30" viewBox="0 0 30 30" fill="none" xmlns="http://www.w3.org/2000/svg">
<circle cx="15" cy="15" r="14.5" fill="white" stroke="#0069FF"/>
<path d="M10.624 18.808C10.9867 18.52 11.152 18.3867 11.12 18.408C12.1653 17.544 12.9867 16.8347 13.584 16.28C14.192 15.7253 14.704 15.144 15.12 14.536C15.536 13.928 15.744 13.336 15.744 12.76C15.744 12.3227 15.6427 11.9813 15.44 11.736C15.2373 11.4907 14.9333 11.368 14.528 11.368C14.1227 11.368 13.8027 11.5227 13.568 11.832C13.344 12.1307 13.232 12.5573 13.232 13.112H10.592C10.6133 12.2053 10.8053 11.448 11.168 10.84C11.5413 10.232 12.0267 9.784 12.624 9.496C13.232 9.208 13.904 9.064 14.64 9.064C15.9093 9.064 16.864 9.38933 17.504 10.04C18.1547 10.6907 18.48 11.5387 18.48 12.584C18.48 13.7253 18.0907 14.7867 17.312 15.768C16.5333 16.7387 15.5413 17.688 14.336 18.616H18.656V20.84H10.624V18.808Z" fill="#0069FF"/>
</svg>
