<svg width="14" height="18" viewBox="0 0 14 18" fill="none" xmlns="http://www.w3.org/2000/svg">
<path d="M6.99999 8.99996C7.45833 8.99996 7.85083 8.83663 8.1775 8.50996C8.50361 8.18385 8.66666 7.79163 8.66666 7.33329C8.66666 6.87496 8.50361 6.48246 8.1775 6.15579C7.85083 5.82968 7.45833 5.66663 6.99999 5.66663C6.54166 5.66663 6.14944 5.82968 5.82333 6.15579C5.49666 6.48246 5.33333 6.87496 5.33333 7.33329C5.33333 7.79163 5.49666 8.18385 5.82333 8.50996C6.14944 8.83663 6.54166 8.99996 6.99999 8.99996ZM6.99999 17.0208C6.88888 17.0208 6.77777 17 6.66666 16.9583C6.55555 16.9166 6.45833 16.8611 6.37499 16.7916C4.34722 15 2.83333 13.3369 1.83333 11.8025C0.833328 10.2675 0.333328 8.83329 0.333328 7.49996C0.333328 5.41663 1.00361 3.7569 2.34416 2.52079C3.68416 1.28468 5.23611 0.666626 6.99999 0.666626C8.76388 0.666626 10.3158 1.28468 11.6558 2.52079C12.9964 3.7569 13.6667 5.41663 13.6667 7.49996C13.6667 8.83329 13.1667 10.2675 12.1667 11.8025C11.1667 13.3369 9.65277 15 7.62499 16.7916C7.54166 16.8611 7.44444 16.9166 7.33333 16.9583C7.22222 17 7.11111 17.0208 6.99999 17.0208Z" fill="#0069FF"/>
</svg>
